<?xml version="1.0" encoding="UTF-8"?>
<svg xmlns="http://www.w3.org/2000/svg"
     viewBox="0 0 242 196"
     role="img"
     aria-label="AERTEX A">
  <style>
    :root { color-scheme: light dark; color: #121417; }
    @media (prefers-color-scheme: dark) {
      :root { color: #ffffff; }
    }
  </style>
  <path d="M163 133L163 135L193 187L195 188L196 187L223 187L224 188L233 188L234 187L237 188L238 187L200 122L183 126ZM239 106L206 105L205 106L187 106L186 107L168 108L167 109L161 109L135 114L101 124L81 132L61 142L44 153L20 173L6 188L3 193L52 193L79 165L92 155L111 143L137 130L167 119L189 113L209 109L222 108L223 107ZM131 3L73 89L72 92L69 95L33 151L42 144L63 131L89 118L98 115L130 68L149 102L159 100L166 100L167 99L187 98L169 65Z" fill="currentColor"/>
</svg>
